<svg xmlns="http://www.w3.org/2000/svg" width="24" height="24" viewBox="0 0 24 24" fill="none">
  <g clip-path="url(#clip0_1_20)">
    <path d="M22 3.01005C21.0424 3.68553 19.9821 4.20216 18.86 4.54006C18.2577 3.84757 17.4573 3.35675 16.567 3.13398C15.6767 2.91122 14.7395 2.96725 13.8821 3.29451C13.0247 3.62177 12.2884 4.20446 11.773 4.96377C11.2575 5.72309 10.9877 6.62239 11 7.54005V8.54005C9.2426 8.58562 7.50127 8.19587 5.93101 7.4055C4.36074 6.61513 3.01032 5.44869 2 4.01005C2 4.01005 -2 13.0101 7 17.0101C4.94053 18.4081 2.48716 19.109 0 19.0101C9 24.0101 20 19.0101 20 7.51005C19.9991 7.23151 19.9723 6.95365 19.92 6.68006C20.9406 5.67355 21.6608 4.40277 22 3.01005Z" stroke="#4b9cc2" stroke-width="2" stroke-linecap="round" stroke-linejoin="round"/>
  </g>
  <defs>
    <clipPath id="clip0_1_20">
      <rect width="24" height="24" fill="white"/>
    </clipPath>
  </defs>
</svg>